<svg version="1.2" xmlns="http://www.w3.org/2000/svg" viewBox="37.2 377.3 925.6 186.7"> 	<title>Untitled-1</title> 	<defs> 		<filter x="-50%" y="-50%" width="200%" height="200%" id="f1"><feDropShadow dx="15.426902632476946" dy="18.385066634855473" stdDeviation="0" flood-color="#000000" flood-opacity=".8"/></filter> 	</defs> 	<style> 		.s0 { filter: url(#f1);fill: #fea016;stroke: #000000;stroke-width: 0 }  		.s1 { fill: #000000 }  		.s2 { fill: #ffffff }  	</style> 	<path id="Rectangle 1" class="s0" d="m37.7 377.3h924.6c0.3 0 0.5 0.2 0.5 0.5v185.7c0 0.3-0.2 0.5-0.5 0.5h-924.6c-0.3 0-0.5-0.2-0.5-0.5v-185.7c0-0.3 0.2-0.5 0.5-0.5z"/> 	<path id="Shadow" class="s1" aria-label="YALCST" d="m198.2 497.5v52.9h-21.2v-52.9h-10.5v-10.6h-10.6v-10.5h-10.6v-10.6h-10.6v-63.5h21.2v52.9h10.6v10.6h10.5v10.6h21.2v-10.6h10.6v-10.6h10.6v-52.9h21.1v63.5h-10.6v10.6h-10.5v10.5h-10.6v10.6zm84.6-42.3v31.7h63.5v-31.7h-10.6v-10.6h-10.6v-10.6h-21.1v10.6h-10.6v10.6zm0 52.9v42.3h-21.2v-105.8h10.6v-10.6h10.6v-10.5h10.6v-10.6h10.5v-10.6h21.2v10.6h10.6v10.6h10.6v10.5h10.5v10.6h10.6v105.8h-21.1v-42.3zm211.6 42.3h-105.8v-148.1h21.1v127h84.7zm52.9-31.8v10.6h42.3v-10.6h10.6v-10.6h21.1v21.2h-10.6v10.6h-10.5v10.6h-63.5v-10.6h-10.6v-10.6h-10.6v-105.8h10.6v-10.6h10.6v-10.6h63.5v10.6h10.5v10.6h10.6v21.2h-21.1v-10.6h-10.6v-10.6h-42.3v10.6h-10.6v84.6zm190.4-105.8v10.6h10.6v21.2h-21.2v-10.6h-10.6v-10.6h-42.3v10.6h-10.6v21.1h10.6v10.6h52.9v10.6h10.6v10.6h10.6v42.3h-10.6v10.6h-10.6v10.6h-63.5v-10.6h-10.5v-10.6h-10.6v-21.2h21.1v10.6h10.6v10.6h42.3v-10.6h10.6v-21.1h-10.6v-10.6h-52.9v-10.6h-10.5v-10.6h-10.6v-42.3h10.6v-10.6h10.5v-10.6h63.5v10.6zm74.1 137.6v-127h-42.3v-21.2h105.8v21.2h-42.4v127z"/> 	<path id="MainText" class="s2" aria-label="YALCST" d="m187.2 483.5v52.9h-21.2v-52.9h-10.5v-10.6h-10.6v-10.5h-10.6v-10.6h-10.6v-63.5h21.2v52.9h10.6v10.6h10.5v10.6h21.2v-10.6h10.6v-10.6h10.6v-52.9h21.1v63.5h-10.6v10.6h-10.5v10.5h-10.6v10.6zm84.6-42.3v31.7h63.5v-31.7h-10.6v-10.6h-10.6v-10.6h-21.1v10.6h-10.6v10.6zm0 52.9v42.3h-21.2v-105.8h10.6v-10.6h10.6v-10.5h10.6v-10.6h10.5v-10.6h21.2v10.6h10.6v10.6h10.6v10.5h10.5v10.6h10.6v105.8h-21.1v-42.3zm211.6 42.3h-105.8v-148.1h21.1v127h84.7zm52.9-31.8v10.6h42.3v-10.6h10.6v-10.6h21.1v21.2h-10.6v10.6h-10.5v10.6h-63.5v-10.6h-10.6v-10.6h-10.6v-105.8h10.6v-10.6h10.6v-10.6h63.5v10.6h10.5v10.6h10.6v21.2h-21.1v-10.6h-10.6v-10.6h-42.3v10.6h-10.6v84.6zm190.4-105.8v10.6h10.6v21.2h-21.2v-10.6h-10.6v-10.6h-42.3v10.6h-10.6v21.1h10.6v10.6h52.9v10.6h10.6v10.6h10.6v42.3h-10.6v10.6h-10.6v10.6h-63.5v-10.6h-10.5v-10.6h-10.6v-21.2h21.1v10.6h10.6v10.6h42.3v-10.6h10.6v-21.1h-10.6v-10.6h-52.9v-10.6h-10.5v-10.6h-10.6v-42.3h10.6v-10.6h10.5v-10.6h63.5v10.6zm74.1 137.6v-127h-42.3v-21.2h105.8v21.2h-42.4v127z"/> </svg>
